# xmcd
#
# Track frame offsets:
#	150
#	21729
#	38264
#	57578
#	74637
#	98264
#	122989
#	142217
#	159936
#	173647
#
# Disc length: 2540 seconds
#
# Revision: 0
# Processed by: cddbd v1.5.2PL0 Copyright (c) Steve Scherf et al.
# Submitted via: audiograbber 1.83.01
#
DISCID=8909ea0a
DTITLE=Powerwolf - Communio Luporum [Bonus CD of 'The Sacrament Of Sin']
DYEAR=2018
DGENRE=Power Metal
TTITLE0=Epica - Sacred And Wild
TTITLE1=Saltatio Mortis - We Drink Your Blood
TTITLE2=Caliban - Kiss Of The Cobra King
TTITLE3=Battle Beast - Resurrection By Erection
TTITLE4=Heaven Shall Burn - Night Of The Werewolves
TTITLE5=Kadavar - The Evil Made Me Do It
TTITLE6=Kissin' Dynamite - Let There Be Night
TTITLE7=Mille Petrozza and Marc Görtz - Amen and Attack
TTITLE8=Amaranthe - Army Of The Night
TTITLE9=Eluveitie - Nata Vimpi Cvrmid - Ira Sancti (When The Saints Are Going W
TTITLE9=ild)
EXTD=
EXTT0=
EXTT1=
EXTT2=
EXTT3=
EXTT4=
EXTT5=
EXTT6=
EXTT7=
EXTT8=
EXTT9=
PLAYORDER=
